<?xml version="1.0" encoding="UTF-8"?><svg id="_레이어_1" xmlns="http://www.w3.org/2000/svg" width="686.03" height="81.59" viewBox="0 0 686.03 81.59"><path d="M290.11,32.16c-6.62-3.09-12.26-5.61-12.26-10.68,0-3.76,3.14-6.59,9.44-6.59,2.25,0,4.17.2,6.09.65,1.01.09,2.02.22,3.04.22,5.28,0,8.43-3.08,10.47-9.15l.89-2.52c-.89-.22-9.78-4.09-21.38-4.09-18.45,0-28.11,11.58-28.11,23.57,0,6.06,1.9,10.46,4.95,13.87,3.93,4.4,9.44,7.39,14.61,9.78,7.65,3.64,14.51,6.41,14.51,11.79,0,4.85-5.07,7.6-11.8,7.6-9.33,0-17.43-5.29-18.45-5.83l-7.66,13.87c1.35.77,11.26,6.93,27.34,6.93,17.21,0,30.13-9.68,30.13-24.54s-12.02-20.27-21.82-24.89" fill="#e1002a"/><path d="M357.37,39.08L388.53,1.66h-22.16l-24.96,32.27h-.24V1.66h-18.32v79.16h1c7.98,0,17.32-3.53,17.32-16.41v-18.29h.46l25.41,33.81h23.18l-32.85-40.86Z" fill="#e1002a"/><path d="M508.28,79.84c-.01-.11-1.08-11.99-1.08-39.12s1.06-38.94,1.08-39.05h-18.24c.01.11,1.08,11.93,1.08,39.05s-1.06,39-1.06,39.12h18.23Z" fill="#864d34"/><path d="M475.62,1.67c-5.76,18.6-14.43,41.52-23.01,60.88-8.58-19.4-17.26-42.33-23-60.88h-19.72c12.1,25.37,22.35,50.67,32.11,78.17h13.34l.18-.5c11.6-32.24,18.27-48.33,31.96-77.67h-11.86Z" fill="#864d34"/><path d="M574.74,79.84v-8.05h-36.59c-.26-5.93-.57-15.89-.57-31.07s.31-25.09.57-31h36.59V1.67h-54.33c0,.11,1.07,11.93,1.07,39.05s-1.06,39-1.07,39.12h54.33Z" fill="#864d34"/><polygon points="572.51 35.93 536.66 35.93 543.57 44.44 572.51 44.44 572.51 35.93" fill="#864d34"/><path d="M674.18,1.67c-5.76,18.57-14.41,41.5-23,60.88-4.09-9.21-8.29-19.41-12.22-29.77,3.61-8.51,8.17-18.59,13.99-31.11h-11.84s-5.31,15.78-6.47,19.24c-1.17-3.47-6.48-19.23-6.48-19.23h-17.74c7.25,15.51,12.54,27.45,17.06,38.43-3.03,7.69-6.25,15.37-9.37,22.43-9.26-18.97-18.17-40.77-25.61-60.88h-15.16c13.68,29.35,20.54,45.97,32.14,78.17h11.34s9.62-25.73,10.87-29.11c1.27,3.38,10.86,29.11,10.86,29.11h11.36c11.61-32.2,18.47-48.8,32.14-78.16h-11.85Z" fill="#864d34"/><path d="M66.54,80.22h-9.77V1.98h9.77v78.24ZM37.48,24.48c0-6.81-4.49-11.54-12.18-11.54s-12.41,5.29-12.41,11.54c0,6.8,4.64,11.77,12.57,11.77s12.01-4.89,12.01-11.77M25.63,44.02c-12.89,0-22.67-7.92-22.67-19.62S13.06,4.86,25.3,4.86c13.53,0,22.11,8.97,22.11,19.78s-8.41,19.38-21.78,19.38M0,56.19c19.22,0,39-.56,53.17-2v7.69c-13.77,2-34.67,2.24-53.17,2.24v-7.93Z" fill="#864d34"/><path d="M152.39,30.64h-12.34v18.18h-9.77V1.97h9.77v20.74h12.34v7.92ZM97.13,66.04c0,5.85,8.72,8.09,17.05,8.09,8.89,0,17.46-2.24,17.46-8.09s-8.57-7.92-17.46-7.92c-8.33,0-17.05,2.08-17.05,7.92M112.03,18.31c0-5.45-4.89-8.41-11.13-8.41-5.61,0-10.97,2.96-10.97,8.41s5.21,8.25,11.13,8.25,10.97-2.88,10.97-8.25M86.88,65.96c0-11.29,13.14-15.29,27.31-15.29s27.71,3.6,27.71,15.29-13.61,15.54-27.71,15.54-27.31-4.16-27.31-15.54M76.23,39.77c7.04,0,13.77-.08,20.26-.24v-5.84c-9.37-1.28-16.18-6.49-16.18-15.46,0-10.25,9.21-15.94,20.58-15.94,12.09,0,20.66,5.69,20.66,16.18,0,8.73-6.57,13.77-15.22,15.22v5.44c7.04-.24,13.69-.72,19.86-1.36v7.29c-13.69,2.16-30.99,2.49-49.97,2.49v-7.77Z" fill="#864d34"/><path d="M201.55,10.46h10.89V1.98h9.77v43.64h-9.77v-8.89h-10.89v-7.61h10.89v-10.97h-10.89v-7.69ZM222.21,80.53h-9.85v-22.98h-44.05v-7.69h53.89v30.67ZM190.74,23.2c0-6.08-4.16-11.61-11.93-11.61s-11.61,5.53-11.61,11.61,3.52,11.53,11.61,11.53,11.93-5.37,11.93-11.53M178.81,3.82c13.37,0,21.62,9.05,21.62,19.38s-7.53,19.3-21.62,19.3c-13.37,0-21.38-8.89-21.38-19.3s8.25-19.38,21.38-19.38" fill="#864d34"/></svg>